PathFileType	4	(X/Y/Z)	/Users/niels/Desktop/University/Third Semester/Perception and Action/Exam/Gymnastics Motion Tracking/Code for Gym Tracking/Analyzed Data/Webcam_Backflip/id2002_2_trajectory_Sports2D/id2002_2_trajectory_Sports2D_px_person00.trc
DataRate	CameraRate	NumFrames	NumMarkers	Units	OrigDataRate	OrigDataStartFrame	OrigNumFrames
29.798657718120804	29.798657718120804	14	22	m	29.798657718120804	55	149
Frame#	Time	Hip			RHip			RKnee			RAnkle			RBigToe			RSmallToe			RHeel			LHip			LKnee			LAnkle			LBigToe			LSmallToe			LHeel			Neck			Head			Nose			RShoulder			RElbow			RWrist			LShoulder			LElbow			LWrist		
		X1	Y1	Z1	X2	Y2	Z2	X3	Y3	Z3	X4	Y4	Z4	X5	Y5	Z5	X6	Y6	Z6	X7	Y7	Z7	X8	Y8	Z8	X9	Y9	Z9	X10	Y10	Z10	X11	Y11	Z11	X12	Y12	Z12	X13	Y13	Z13	X14	Y14	Z14	X15	Y15	Z15	X16	Y16	Z16	X17	Y17	Z17	X18	Y18	Z18	X19	Y19	Z19	X20	Y20	Z20	X21	Y21	Z21	X22	Y22	Z22
55	1.845720720720721	0.9276645066524194	-0.7147281220806933	0.0	0.8784588562297301	-0.7228034252753106	0.0	0.8979808069538971	-1.054379452764347	0.0	0.9254389831837881	-1.0890864228728026	0.0			0.0			0.0			0.0	0.9922615388183422	-0.7271478169373765	0.0	1.0127349233043565	-1.050174986682745	0.0	0.9814644488025416	-1.0834059036746166	0.0			0.0			0.0	0.74603759765625	-1.06143896484375	0.0	0.9655048448844462	-0.18610551406291703	0.0	1.0280348443058287	-0.019496660468995744	0.0	1.0271989488395983	-0.08340538705084134	0.0	0.875525947355801	-0.24706228314982615	0.0	0.8616608368927601	-0.5031821799061668	0.0	0.9810007564949464	-0.7541933839263181	0.0	1.0318817683112116	-0.25911314900478744	0.0	0.9870489769193859	-0.47794285084661664	0.0	1.0765310816922673	-0.45148087312886126	0.0
56	1.8792792792792796	0.9294209423916104	-0.7135988957190085	0.0	0.8781002388928266	-0.7222863606836359	0.0	0.8987757020428412	-1.051361869906406	0.0	0.9226126740575024	-1.088275309298502	0.0			0.0			0.0			0.0	0.992898617986609	-0.7267686977159185	0.0	1.0070193644720689	-1.047138854572342	0.0	0.9795341201554132	-1.0815012989302257	0.0			0.0			0.0	0.74603759765625	-1.06143896484375	0.0	0.9660236210619185	-0.18601759381065328	0.0	1.0267876059204535	-0.019806151953380854	0.0	1.026230750013824	-0.08368844691108658	0.0	0.8746384836018202	-0.24811462425479294	0.0	0.8566398398858444	-0.504154907204143	0.0	0.9613971235345856	-0.7608851444653826	0.0	1.032487419790309	-0.25926089459944435	0.0	0.987655045320825	-0.47694203007721453	0.0	1.0761261567881941	-0.4509349146780364	0.0
57	1.9128378378378381	0.9309537690162334	-0.7110280973059849	0.0	0.8774004218229918	-0.7199959300053171	0.0	0.9001954957396563	-1.047781706749678	0.0	0.9175474748388762	-1.086903297555846	0.0			0.0			0.0			0.0	0.9926108657478747	-0.7244273911123497	0.0	1.000909580623731	-1.0433450020935475	0.0	0.9771755370994151	-1.0790256082131031	0.0			0.0			0.0	0.74603759765625	-1.06143896484375	0.0	0.9669198040678098	-0.1860115436574884	0.0	1.0266243897370637	-0.02008376204030977	0.0	1.0257683551621464	-0.0845444390104087	0.0	0.8738705458828574	-0.24937633248101845	0.0	0.8508535967655488	-0.5052614303418638	0.0	0.9406274923762377	-0.7662432287313744	0.0	1.032922209749039	-0.25987697863820886	0.0	0.9895696804665008	-0.47543461425549716	0.0	1.0767683821597689	-0.45041341987601613	0.0
58	1.9463963963963966	0.9323229125759956	-0.7077588664910018	0.0	0.8766229935506599	-0.7166669208531141	0.0	0.9015501955709984	-1.0439676821070432	0.0	0.9103694143959179	-1.0850693194406869	0.0			0.0			0.0			0.0	0.9913224940906304	-0.7212122417458474	0.0	0.9945530563887289	-1.0392819382921796	0.0	0.9747075106149236	-1.0764165807285688	0.0			0.0			0.0	0.74603759765625	-1.06143896484375	0.0	0.9683086217493403	-0.1861686979243843	0.0	1.027470726772687	-0.0201379158440454	0.0	1.026130332405786	-0.08585751750530576	0.0	0.8734309073328697	-0.2506795782850624	0.0	0.8446196809750456	-0.5062904616196563	0.0	0.9193206195990181	-0.7702079064362375	0.0	1.0334564247070488	-0.2612354976556311	0.0	0.9925961729801536	-0.47429879681723064	0.0	1.078452834842908	-0.4504781092953907	0.0
59	1.979954954954955	0.9334538861672037	-0.7043994859041667	0.0	0.8760166597759232	-0.712905783081352	0.0	0.9020364906704222	-1.0403399591544342	0.0	0.902546569641726	-1.0831532908658326	0.0			0.0			0.0			0.0	0.9891582375127447	-0.7180082061717173	0.0	0.9883547354402359	-1.035536235939189	0.0	0.9727072003504542	-1.0740797132547062	0.0			0.0			0.0	0.74603759765625	-1.06143896484375	0.0	0.970260654026989	-0.18663981090306558	0.0	1.0293054681129976	-0.019920680969001025	0.0	1.0275966595707808	-0.08756444585643776	0.0	0.8734364000457899	-0.2519254595649999	0.0	0.8382820886183476	-0.5070419356575105	0.0	0.8981160638551619	-0.7728028362880364	0.0	1.0343645495849798	-0.2634964876716702	0.0	0.9964827294869949	-0.47439473968190643	0.0	1.0809208304484295	-0.4519987933009758	0.0
60	2.0135135135135136	0.9342881771590194	-0.7014195412345506	0.0	0.8759733604048059	-0.7093119929935956	0.0	0.9012742954599217	-1.0373225527150154	0.0	0.896555523159256	-1.0815457218422249	0.0			0.0			0.0			0.0	0.9864930117638072	-0.7154292261679761	0.0	0.9828285589490907	-1.0326192019077465	0.0	0.971468980586626	-1.0721725087832088	0.0			0.0			0.0	0.74603759765625	-1.06143896484375	0.0	0.972789366843305	-0.18766127431422447	0.0	1.0321905026773799	-0.019620179016415926	0.0	1.030353021416469	-0.08972353947893197	0.0	0.8739360456625094	-0.2531752618643261	0.0	0.8321432863074488	-0.5074001674605098	0.0	0.8776565247174949	-0.7740851557872448	0.0	1.035810366618246	-0.2666485889733107	0.0	1.000878606410652	-0.4762361351510959	0.0	1.0837033098936497	-0.4561905471456814	0.0
61	2.0470720720720723	0.9348583662881655	-0.6992522800190372	0.0	0.8768246326328134	-0.7065815647400484	0.0	0.899438851399698	-1.0352792347846744	0.0	0.8938867243467474	-1.0803147639715076	0.0			0.0			0.0			0.0	0.9838461601263928	-0.7139951420045674	0.0	0.9780659613169103	-1.0308873129191978	0.0	0.9704454569426904	-1.0707099971038394	0.0			0.0			0.0	0.74603759765625	-1.06143896484375	0.0	0.9759175524576585	-0.18945902351189162	0.0	1.036120496501312	-0.019467324846139493	0.0	1.0344233685873785	-0.09248062156380121	0.0	0.8750048596945008	-0.2546320706488299	0.0	0.8264730318662955	-0.5074065193976339	0.0	0.8585604345525638	-0.7742404823036959	0.0	1.0378794082205338	-0.27057724943972933	0.0	1.0052922089390726	-0.4798648613264862	0.0	1.0863357403965122	-0.4644069678839985	0.0
62	2.080630630630631	0.9351595300188856	-0.6981299618147581	0.0	0.8783182150269011	-0.705139575031632	0.0	0.8968220740907915	-1.0343847481585882	0.0	0.8936687046201206	-1.0792990830109375	0.0			0.0			0.0			0.0	0.9816670676661571	-0.7139473031220908	0.0	0.9736597990674147	-1.030396007083767	0.0	0.9686249609795758	-1.069734894814821	0.0			0.0			0.0	0.74603759765625	-1.06143896484375	0.0	0.9796859313456012	-0.192110891340077	0.0	1.0410044348787315	-0.019530924772394306	0.0	1.0396713284389933	-0.09601960311978922	0.0	0.8767526974968174	-0.2565270539976155	0.0	0.8215715496790486	-0.5072771020964493	0.0	0.8414155242659664	-0.7736741404281955	0.0	1.0406331402361115	-0.2751060599904525	0.0	1.0090773270730389	-0.4848068750340727	0.0	1.0885478302089269	-0.4774469501250709	0.0
63	2.1141891891891893	0.9350587371494099	-0.6979656903364154	0.0	0.8796071973324568	-0.7049034709312176	0.0	0.8934718529406739	-1.0345653570130782	0.0	0.8937969584069131	-1.0784095320643234	0.0			0.0			0.0			0.0	0.9801441860024361	-0.7150599946648932	0.0	0.9693944949298613	-1.0308528680558455	0.0	0.9657683116792503	-1.0692874957103708	0.0			0.0			0.0	0.74603759765625	-1.06143896484375	0.0	0.9840746874041565	-0.19553730709011294	0.0	1.046811943868489	-0.01976999648703966	0.0	1.0458677662472775	-0.10053424514390984	0.0	0.879213920245783	-0.2589926797465441	0.0	0.8177282667591654	-0.5073374915035717	0.0	0.8267774537960564	-0.7729398553699834	0.0	1.0440509489383343	-0.280020243565922	0.0	1.0116542331188036	-0.49023273012516455	0.0	1.0903215816654848	-0.49435187140258774	0.0
64	2.147747747747748	0.9341658914851843	-0.6984670094375866	0.0	0.8796608851709946	-0.705424445211697	0.0	0.8890963645900355	-1.035573401929777	0.0	0.8925908265681833	-1.077763487013728	0.0			0.0			0.0			0.0	0.978970108854697	-0.716751340286311	0.0	0.965323261184969	-1.031842048634694	0.0	0.9624928250067124	-1.0693144852916054	0.0			0.0			0.0	0.74603759765625	-1.06143896484375	0.0	0.9889787147865644	-0.1995941370714191	0.0	1.0536179316961356	-0.02015965036230935	0.0	1.0527174540231192	-0.1061314191989125	0.0	0.882289602817925	-0.2620166415390863	0.0	0.8150974207460772	-0.5079070989209642	0.0	0.8151350846953077	-0.7725324728506336	0.0	1.047930277894069	-0.2851077205326226	0.0	1.012793712967992	-0.495201220574117	0.0	1.0918665686276046	-0.5107934926121026	0.0
65	2.1813063063063067	0.9317891085788877	-0.6993140808420555	0.0	0.8775210444158374	-0.7060921912565583	0.0	0.8832075492937745	-1.0370796314681063	0.0	0.8891752849514734	-1.0776377614491	0.0			0.0			0.0			0.0	0.9773106759112572	-0.7183509164989232	0.0	0.9608603022762618	-1.033084767330586	0.0	0.9588060931658892	-1.0697691541397114	0.0			0.0			0.0	0.74603759765625	-1.06143896484375	0.0	0.9942424477632188	-0.20411252745809877	0.0	1.0614304240168302	-0.020729851521069972	0.0	1.0598819496944127	-0.11268353386412752	0.0	0.8858306428475234	-0.2654678064673992	0.0	0.813685591563546	-0.509177235329504	0.0	0.8068382349399223	-0.7727235878122021	0.0	1.0519294511217618	-0.29017548940867904	0.0	1.0126075214867138	-0.49885671537580184	0.0	1.0934223357266402	-0.5198309422378601	0.0
66	2.214864864864865	0.9273330669650303	-0.7002807152386764	0.0	0.8725555940799308	-0.7063937925426625	0.0	0.8755658488338173	-1.0387422065948935	0.0	0.8831201045928764	-1.0782198102723979	0.0			0.0			0.0			0.0	0.9743531455864113	-0.7194177144586625	0.0	0.9548932631974341	-1.0344493035922766	0.0	0.9536217164111204	-1.070655943184063	0.0			0.0			0.0	0.74603759765625	-1.06143896484375	0.0	0.999683427364465	-0.20891693628109478	0.0	1.0699814914896577	-0.021601851322241183	0.0	1.0670531892013475	-0.11980032662723851	0.0	0.8896918461424751	-0.2691500629977562	0.0	0.8134436147715222	-0.5111550754160256	0.0	0.8020443384632959	-0.7735612607687349	0.0	1.055760760717014	-0.29509219308600215	0.0	1.0114903719047983	-0.5008447479805559	0.0	1.0950267954463926	-0.5180365046359985	0.0
67	2.2484234234234237	0.9207168514258632	-0.7012604614588532	0.0	0.8647174088133853	-0.7061706822974547	0.0	0.8664592948540553	-1.0401864988951306	0.0	0.8740812518070702	-1.0793000060538032	0.0			0.0			0.0			0.0	0.9698230498611844	-0.7199141538920755	0.0	0.9469634808177992	-1.035727198608693	0.0	0.945945444340803	-1.0717635973208985	0.0			0.0			0.0	0.74603759765625	-1.06143896484375	0.0	1.0050861813016276	-0.21384702940008501	0.0	1.0787480547356885	-0.022998621127606995	0.0	1.073976100530067	-0.12699408485532487	0.0	0.8936695822084534	-0.272846528109384	0.0	0.814282311494087	-0.513692463798266	0.0	0.8007450253272085	-0.7749364456743295	0.0	1.0592773257258132	-0.2998327494699625	0.0	1.010013695819916	-0.5016444084308999	0.0	1.0965737294324056	-0.5096543261045446	0.0
68	2.2819819819819824	0.9124252469781872	-0.7022228756041188	0.0	0.8545578631139626	-0.7056109971951567	0.0	0.8565820896341474	-1.04106153863496	0.0	0.8620226865560346	-1.0802915866255949	0.0			0.0			0.0			0.0	0.9639694375476963	-0.7201127589941704	0.0	0.9377659663959746	-1.0366113578750582	0.0	0.935949251830873	-1.0725311667285096	0.0			0.0			0.0	0.74603759765625	-1.06143896484375	0.0	1.0101794533423252	-0.21871407948332303	0.0	1.0871707801124857	-0.025136992297974205	0.0	1.0803952508172194	-0.1339077000152409	0.0	0.8974787221456008	-0.2763440564145546	0.0	0.8159991515382246	-0.5164970656892363	0.0	0.8028221641418587	-0.7766318643729162	0.0	1.0623903535816133	-0.3044168847716743	0.0	1.0085752327650674	-0.5022603854418666	0.0	1.0979808444215613	-0.5015690837584337	0.0
